<?xml version="1.0" encoding="UTF-8"?><svg id="Layer_1" xmlns="http://www.w3.org/2000/svg" viewBox="0 0 283.46 283.46"><defs><style>.cls-1{fill:#ed1c24;stroke-width:0px;}</style></defs><path class="cls-1" d="m55.39,125.69c5.62,4.94,4.09,14.2-.97,21.88-8.72,13.26-20.38,12.71-21.64,7.04-.65-2.92,1.64-7.07,5.59-6.6,3.27.39,7.76,2.02,11.73-3.22,1.47-1.9,2.18-4.65.14-6.58-1.76-1.67-4.61-1.13-7.03.22-5.74,3.27-17.08,14.15-26.18,5.01-6.72-6.84-2.3-15.81.26-19.71,7.74-11.78,20.61-11.83,21.35-5.92.31,2.99-1.78,6.17-5.43,6.26-3.21.09-8.38-2.21-11.61,2.49-1.78,2.71-1.14,5.63,1.52,6.94,2.56,1.24,6.2.84,11.47-3.61,8.39-6.96,14.47-9.85,20.81-4.21"/><path class="cls-1" d="m113.52,97.21c.45.87.15,1.55-1.11,2.31l-13.15,7.88c-1.21.72-2.01.7-2.56-.11-.49-.7-.24-1-.09-3.02.05-1.1.3-1.75-1.56-3.92l-12.94-15.04c-.39-.41-1.02-.03-.87.45l5.91,26.68c.3,1.1-.18,2.32-1.18,2.92l-1.68,1.01c-1,.6-2.3.45-3.13-.34l-20.47-17.96c-.36-.36-.99.02-.79.47l7.18,18.56c1.03,2.67,1.67,2.79,2.67,3.26,1.85.82,2.23.74,2.67,1.47.4.91.09,1.59-1.12,2.31-.05.03-6.52,3.91-6.52,3.91-1.21.72-2.01.7-2.56-.11-.98-1.63,1.17-3.77-.41-7.97l-9.51-24.59c-.89-2.32-1.48-2.83-2.85-3.44-1.85-.82-2.26-.79-2.62-1.5-.45-.87-.09-1.59,1.12-2.31l11.62-6.96c.79-.47,1.84-.39,2.52.28l14.86,15.03c.36.36.97.06.82-.42l-5.11-20.94c-.21-.94-.21-1.66,1-2.39l11.57-6.93c1.21-.73,1.95-.67,2.56.1.41.68.19,1.03.04,3.05-.06,1.46.06,2.25,1.69,4.13l17.24,19.96c2.93,3.46,5.8,2.53,6.78,4.16"/><path class="cls-1" d="m134.05,88.57c1.56,1.29,1.95,1.31,2.17,2.13.14.98-.34,1.56-1.7,1.93-.06.01-13.06,3.58-13.06,3.58-1.36.37-2.12.14-2.44-.79-.29-.81.04-1.03.72-2.93.5-1.41.31-2.12-.34-4.48l-6.87-25.06c-.65-2.36-.84-3.07-2-4.03-1.56-1.29-1.96-1.37-2.11-2.15-.2-.96.34-1.55,1.69-1.93,0,0,13.01-3.56,13.06-3.58,1.36-.38,2.06-.12,2.44.79.21.77-.09,1.04-.78,2.95-.45,1.39-.31,2.12.34,4.48l6.87,25.06c.65,2.36.9,3.06,2,4.03"/><path class="cls-1" d="m174.47,60.93c-2.39.02-3.58-2.42-4.58-4.31-.75-1.46-1.51-3.85-5.12-3.81h-.24c-1.47.02-2.08.33-2.32,1.37-.05.68-.11,1.41-.1,2.58l.25,25.98c.02,2.45.09,3.25.96,4.4,1.18,1.64,1.55,1.82,1.5,2.62-.05.98-.72,1.42-2.13,1.43-.06,0-13.48.13-13.54.13-1.41.01-2.02-.41-2.16-1.39-.07-.8.3-.98,1.51-2.65.79-1.17.84-1.97.82-4.42l-.25-25.98c-.01-1.16-.02-1.9-.15-2.57-.25-1.04-.87-1.34-2.28-1.33h-.24c-3.62.04-4.33,2.43-5.05,3.91-1.02,1.91-2.16,4.37-4.55,4.4-1.29.02-1.78-.84-1.56-2.44.35-2.27.87-5.16,1.21-7.37.35-2.21,1.26-2.95,3.34-2.97l31.44-.3c2.08-.02,3.07.71,3.4,2.91.39,2.2,1.03,5.08,1.36,7.34.32,1.59-.22,2.45-1.51,2.47"/><path class="cls-1" d="m215.76,104.24c.5,1.96.8,2.21.49,3.01-.46.87-1.19,1.06-2.5.55-.06-.02-12.66-4.82-12.66-4.82-1.32-.5-1.79-1.14-1.5-2.08.25-.82.63-.81,2.31-1.94,1.24-.84,1.5-1.53,2.37-3.82l2.14-5.61c1.5-3.95,1.87-4.73-4.6-7.2-6.47-2.46-6.78-1.66-8.28,2.29l-2.14,5.61c-.87,2.29-1.13,2.98-.77,4.43.5,1.96.8,2.21.44,2.98-.41.9-1.13,1.08-2.51.56l-12.66-4.82c-1.32-.5-1.74-1.12-1.5-2.08.31-.8.69-.79,2.37-1.92,1.18-.86,1.5-1.53,2.37-3.82l9.24-24.29c.87-2.29,1.08-3,.77-4.43-.5-1.96-.78-2.26-.49-3.01.46-.87,1.19-1.05,2.51-.55l12.66,4.82c1.37.52,1.8,1.14,1.5,2.08-.23.77-.63.81-2.31,1.94-1.24.84-1.5,1.53-2.37,3.82l-1.72,4.52c-1.51,3.95-1.81,4.75,4.66,7.22,6.47,2.46,6.72,1.64,8.22-2.31l1.72-4.53c.87-2.29,1.14-2.98.77-4.43-.5-1.96-.78-2.26-.44-2.99.41-.89,1.19-1.05,2.5-.55l12.66,4.82c1.32.5,1.74,1.12,1.5,2.08-.29.74-.69.78-2.37,1.92-1.18.86-1.5,1.53-2.38,3.81l-9.25,24.29c-.87,2.29-1.08,3-.77,4.43"/><path class="cls-1" d="m230.71,90.28c-.45-.1-.8-.57-.75-1.06.01-.44.38-.86.81-.93,1.93-.29,3.75-.73,5.16-1.68.44-.3.54-.97.09-1.29-3.22-2.66-3.18-5.48-1.52-7.83,1.81-2.55,5.28-3.1,8.33-.94,3.9,2.76,3.24,6.35,1.44,8.9-3.29,4.65-8.58,5.87-13.56,4.82"/><path class="cls-1" d="m252.91,136.32c-6.13,4.3-14.77.62-21.04-6.09-10.84-11.6-7.55-22.8-1.74-22.69,2.99.06,6.48,3.25,5.09,6.98-1.15,3.08-3.8,7.07.37,12.15,1.5,1.87,4.01,3.21,6.36,1.69,2.04-1.32,2.18-4.22,1.45-6.89-1.82-6.35-9.73-19.93,1.29-26.62,8.24-4.92,15.91,1.49,19.09,4.9,9.62,10.3,6.64,22.82.72,22.14-2.98-.41-5.57-3.18-4.8-6.76.67-3.14,4.12-7.62.32-11.87-2.22-2.37-5.21-2.43-7.11-.15-1.81,2.19-2.28,5.82.81,12,4.78,9.79,6.16,16.38-.81,21.22"/><path class="cls-1" d="m92.83,171.62c-4.23.45-3.48,1.62-2.85,7.6l1.02,9.64c.35,2.1,1.09,2.59,3.89,2.29,5.35-.57,6.59-4.91,6.08-9.76-.65-6.16-4.47-10.16-8.14-9.77"/><path class="cls-1" d="m225.87,189.28c-.38,7.64-8.76,12.3-18.11,13.14-16.15,1.46-23.12-8.22-19.39-12.84,1.92-2.37,6.69-3.18,8.82.27,1.77,2.86,3.32,7.5,10.03,7.33,2.45-.03,5.11-1.22,5.35-4.07.22-2.47-2.03-4.4-4.65-5.49-6.26-2.52-22.17-4.66-20.65-17.75,1.2-9.73,11.19-11.89,15.92-12.31,14.34-1.3,22.56,8.96,18.3,13.31-2.19,2.15-6.06,2.5-8.46-.37-2.11-2.51-3.56-8.1-9.37-7.7-3.3.3-5.23,2.67-4.58,5.63.63,2.83,3.26,5.49,10.18,6.88,10.89,2.28,17.08,5.31,16.6,13.97m-43.87,4.4c-.16,2.3-.46,5.17-.63,7.41-.17,2.24-1.02,3.06-3.17,3.26,0,0-27.59,2.49-27.65,2.5-1.41.13-2.12-.24-2.27-1.22-.14-.85.22-1.01,1.23-2.77.75-1.3.68-2.04.46-4.49l-2.35-26c-.22-2.45-.29-3.19-1.26-4.34-1.31-1.55-1.7-1.7-1.71-2.5-.03-.99.61-1.48,2.02-1.6l26.18-2.36c2.15-.19,3.13.46,3.7,2.63.57,2.17,1.37,4.94,1.95,7.18.39,1.57-.02,2.54-1.31,2.65-2.45.22-3.78-2.19-5-4-.86-1.34-2.55-3.6-6.17-3.28l-.61.06c-4.42.4-4.97.45-4.69,4.26,0,.06.8,8.83.8,8.83.07.8.81,1.41,1.6,1.34l1.9-.17c3.01-.27,2.94-5.09,5.03-5.28,1.84-.16,1.64,2.45,2.05,6.93.4,4.48,1.06,7.01-.77,7.18-2.08.19-2.88-4.56-5.89-4.29l-1.9.17c-.8.07-1.42.75-1.34,1.54,0,0,.98,10.85,1.02,11.28.39,2.25,1.27,2.42,4.89,2.09l2.45-.22c3.62-.33,4.87-2.85,5.48-4.33.87-1.99,1.75-4.61,4.2-4.83,1.29-.12,1.86.76,1.76,2.38m-44.61,13.81c-.06,0-13.55,1.03-13.55,1.03-1.41.11-2.12-.27-2.25-1.25-.13-.85.23-1,1.27-2.75.77-1.29.71-2.03.52-4.48l-1.98-25.99c-.19-2.45-.24-3.19-1.2-4.35-1.29-1.57-1.67-1.72-1.67-2.52-.01-.98.63-1.47,2.04-1.57,0,0,13.49-1.03,13.55-1.03,1.41-.11,2.05.27,2.25,1.25.06.8-.29,1.01-1.33,2.75-.7,1.29-.71,2.03-.52,4.48l1.98,25.99c.19,2.45.31,3.18,1.2,4.35,1.29,1.57,1.67,1.66,1.73,2.52-.05.99-.63,1.47-2.04,1.57m-38.35-12.12c-.99.1-2.8.3-2.92.31-3.61.38-4.17,1.07-3.99,3.88l.29,2.8c.26,2.49.41,3.29,1.34,4.39,1.42,1.55,1.75,1.7,1.84,2.51-.02,1.01-.6,1.51-2.03,1.66-.06,0-13.75,1.45-13.75,1.45-1.43.15-2.16-.21-2.33-1.2-.15-.8.21-1.03,1.21-2.83.75-1.28.66-2.08.4-4.57l-2.78-26.38c-.26-2.49-.34-3.24-1.34-4.33-1.36-1.55-1.75-1.7-1.78-2.58-.04-.94.6-1.51,2.03-1.66l19.91-2.1c11.76-1.24,18.21,5.06,19,12.53.79,7.53-4.21,14.98-15.1,16.12m-45.25-36.43c7.82,24.72,7.3,51.54,21.28,61.28,13.98,9.74,47.47,16.02,96.86,14.9,36.87-2.6,45.26,2.37,54.89-14.64,9.63-17.01,11.52-77.81,11.52-77.81l-184.56,16.26Z"/></svg>