<?xml version="1.0" encoding="utf-8"?>
<!-- Generator: Adobe Illustrator 26.0.1, SVG Export Plug-In . SVG Version: 6.00 Build 0)  -->
<svg version="1.1" id="Layer_1" xmlns="http://www.w3.org/2000/svg" xmlns:xlink="http://www.w3.org/1999/xlink" x="0px" y="0px"
	 viewBox="0 0 720 720" style="enable-background:new 0 0 720 720;" xml:space="preserve">
<style type="text/css">
	.st0{fill:#372615;}
</style>
<g id="Layer_1_00000140699516092367786710000008934103882911913659_">
	<g>
		<g>
			<path class="st0" d="M440.1,186.1c-15.4-7.5-31-6.2-32.1-10.3c-0.5-1.9,3.1-5,10.3-6.6c3.5-0.8,7.9-1.2,12.8-0.8
				c4.9,0.5,10.2,1.8,15.3,4.2c5.2,2.4,9.6,5.7,13.1,9.1c3.5,3.5,5.9,7.1,7.5,10.4c3.2,6.7,3,11.4,1.2,12.2c-1.9,0.9-5.1-2-9.6-5.9
				C454.1,194.5,447.9,189.7,440.1,186.1z"/>
		</g>
		<g>
			<path class="st0" d="M553.8,284.9c-4.6-7.2-10.3-12.6-14.8-16.6c-4.5-4-7.8-6.7-7.2-8.7c0.5-1.9,5.2-2.8,12.2-0.5
				c3.5,1.1,7.5,3.1,11.4,6c3.9,2.9,7.8,6.9,10.9,11.7c3.1,4.8,5.2,9.9,6.3,14.6c1.1,4.7,1.3,9.1,1,12.8c-0.6,7.3-3.2,11.3-5.1,11.1
				C564.3,314.8,563.3,299.1,553.8,284.9z"/>
		</g>
		<g>
			<path class="st0" d="M325.2,339.5c0.1,1.3-1.4,1.9-2.3,1c-9.2-10.6-16.5-17.3-18-16.1c-2.2,1.7,7.3,17.6,21.2,35.7l0,0
				c2.2,2.8,3.7,6.1,4.5,9.6c3.9,16.9,8.4,29.2,10.7,28.8c1.6-0.3,1.8-6.8,0.7-16.4c-0.1-1,1.1-1.6,1.8-0.8c5.8,6,10,9.4,11.2,8.5
				c2.5-1.9-5.7-13.6-6.7-15.2c-2.8-4.5-6.4-8.7-9-13.3c-2.3-4.1-2.4-8.9-3.5-13.4c-1.1-4.7-2.4-9.3-3.8-13.8
				c-0.5-1.6-3.5-13-6.3-12.4C324.1,321.9,324,329,325.2,339.5z"/>
			<path class="st0" d="M201.2,109.3c4.1,2.9,9.6,6.6,15.4,11.2c11.8,9,20.8,17.5,23,15.9c1.1-0.8,0.2-4.2-2.7-8.7
				c-2.9-4.5-7.7-10.1-14.3-15c-6.5-5-13.3-8.2-18.5-9.6c-2.6-0.8-4.8-1-6.4-1c-1.6,0-2.5,0.4-2.7,1c-0.2,0.6,0.3,1.5,1.4,2.6
				C197.5,106.6,199.2,107.8,201.2,109.3z"/>
			<path class="st0" d="M283.2,217.2c2.5,3.4,5.2,6.7,7.9,9.8c2.7,2.9,5.3,5.7,7.8,8.3c5,5.2,9.6,9.8,13.5,13.6
				c7.8,7.6,12.8,12.2,13.9,11.4c1.1-0.8-2-7.1-8.6-16c-3.3-4.5-7.4-9.6-12-15.1c-2.3-2.7-4.8-5.6-7.3-8.6c-2.4-2.9-4.8-6-7.3-9.3
				c-9.7-13.2-18.2-25.7-24.7-34.5c-6.5-8.8-10.9-14-12.1-13.3c-1.2,0.7,1.2,7.2,6.2,17C265.5,190.3,273.1,203.5,283.2,217.2z"/>
			<path class="st0" d="M438.1,513.6c3.1,5.7,5.8,8.9,7,8.3c1.3-0.5,0.9-4.6-0.5-10.8c-1.4-6.2-3.7-14.6-6.6-23.7
				c-5.9-18.3-12.1-32.8-14.7-32.1c-2.6,0.7-0.7,16.5,5.3,35.1C431.6,499.7,435,507.9,438.1,513.6z"/>
			<path class="st0" d="M354.1,301.6c2,4.1,3.8,8.2,5.5,12.5c2.6,6.5,5.2,14.4,7.8,23.4c2.6,9,5.2,19,8,29.5
				c0.4,1.3,0.7,2.6,1.1,3.9c0.4,1.3,0.8,2.7,1.2,4c0.8,2.7,1.8,5.2,2.6,7.7c0.9,2.5,1.9,4.9,2.9,7.2c1,2.3,2,4.6,3.1,6.8
				c4.2,8.7,8.5,16.2,12.3,22.3c2.6,4.2,5.2,8.4,8.3,12.2c0.9,1.1,2.9,4.1,4.6,4c2.9-0.2-1-7-1.5-8.3c-1.7-3.8-3.5-7.5-5.3-11.3
				c-3-6.4-6.6-14.1-10.1-22.7c-0.9-2.1-1.7-4.4-2.7-6.6c-0.9-2.3-1.7-4.6-2.5-6.9c-0.7-2.4-1.7-4.8-2.3-7.2
				c-0.4-1.2-0.7-2.5-1.1-3.7c-0.3-1.3-0.7-2.6-1.1-3.9c-2.8-10.6-5.7-20.7-8.9-29.7c-3.2-9.1-6.6-17.1-10.2-23.6
				c-3.6-6.5-7.1-11.3-9.9-14.3c-0.7-0.8-4.5-4.5-4.6-1c0,0.5,0.6,1.3,0.7,1.7C352.7,298.8,353.4,300.2,354.1,301.6z"/>
			<path class="st0" d="M216.6,205.3c0.5,2.6,1.2,5.1,1.6,7.6c0.2,1.3,0.4,2.5,0.7,3.7c0.1,1.2,0.3,2.5,0.4,3.7
				c0.3,2.6,0.6,5.1,0.9,7.6c0.4,2.5,0.8,5,1.3,7.4c2,9.6,4.8,18,7.6,24.7c5.8,13.5,11.6,20.7,12.8,20c1.2-0.7-2.3-8.8-6.2-22.4
				c-1.9-6.8-3.9-14.9-5.2-24c-0.3-2.3-0.6-4.6-0.9-7c-0.2-2.4-0.4-4.9-0.6-7.5c-0.1-1.3-0.3-2.7-0.4-4.1c-0.2-1.4-0.4-2.7-0.6-4.1
				c-0.4-2.8-1.1-5.5-1.7-8.3c-2.8-11.1-7-21.1-11.6-29.7c-4.6-8.6-9.6-15.8-14.2-21.6c-9.2-11.4-16.5-17-17.4-16.1
				c-1.1,1,4.3,8.1,11.7,20.1C202,167.7,211.4,184.9,216.6,205.3z"/>
			<path class="st0" d="M437.3,289.2c0-0.1,0.2-0.2,0.3-0.4c0.2-0.3,0.4-0.4,0.6-0.6c0.4-0.3,0.6-0.5,1.3-0.7
				c1.4-0.5,4.3-0.9,7.1-1.5c3-0.5,5.9-1.2,8.7-2.2c3.2-1.1,5.7-2.6,7.9-4.1c2.2-1.5,4-3.1,5.5-4.7c3-3.1,4.9-6,5.9-8.2
				c1-2.2,1.1-3.8,0.3-4.5c-1.5-1.4-6,1.1-12.5,4.3c-3.2,1.6-7.1,3.3-10.8,4c-2.2,0.4-4.6,0.7-7.2,1c-2.7,0.4-5.7,0.4-10,1.9
				c-2.1,0.7-4.5,2.1-6.3,3.7c-0.9,0.8-1.7,1.7-2.3,2.6c-0.3,0.5-0.6,0.8-0.9,1.4c-0.3,0.5-0.6,1.1-0.9,1.6
				c-2.2,4.5-1.9,9.6-0.5,13.3c1.4,3.8,3.7,6.4,5.9,8.3c0.5,0.5,1.1,1,1.7,1.3c0.6,0.4,1.1,0.8,1.7,1.2c1.1,0.6,2.2,1.3,3.3,1.7
				c4.2,1.9,7.8,2.3,10.2,2.3c2.5-0.1,3.9-0.7,4.2-1.7c0.3-1-0.6-2.3-2.3-3.8c-1.6-1.6-4.1-3.3-6.5-5.7c-0.6-0.6-1.2-1.2-1.8-1.8
				c-0.5-0.7-1.1-1.3-1.5-2c-1-1.4-1.7-2.8-1.8-4c-0.2-1.2,0.1-2,0.5-2.5C437.2,289.3,437.3,289.3,437.3,289.2z"/>
			<path class="st0" d="M692.8,239.2c-5.1-7.2-15.1-17.6-34.1-25.6c-0.8-0.3-1.4-1.1-1.4-2c-0.2-5.9-1.5-28.7-12.6-43.7
				c-1.1-1.5-3.5-1.1-4,0.7c-0.9,3.6-2.5,8.5-4.6,11.5c-0.8,1.1-2.4,1.3-3.4,0.4c-11.5-10.5-82.6-70.3-138.5,2.8
				c-19.8,25.8-12,53.8,10.1,79.8c0.9,1.1,2.7,1,3.5-0.2c5.9-8.7,28.7-36.7,64-14.7c0.9,0.6,10,7.4,15.3,20.8
				c2.2,6.3,3.7,12.7,4.2,18.9c1,13.2-2.6,24.2-10.9,33.7c-6.4,7.4-13.9,13.9-22.1,19.4c-4.5,3-9.1,5.6-14,7.9
				c-2.4,1.1-4.9,2.2-7.4,3.2c-1,0.4-2.4,1.3-3.4,0.5c-0.8-0.6-1-1.9-0.3-2.6c1-1,2.5-1.7,3.6-2.6c2.3-1.9,4.5-3.9,6.4-6.2
				c16.2-18.6,15.4-45.7-1.6-60.5c-17-14.8-44-11.7-60.2,6.8c-7.5,8.6-11.7,19.5-11.7,30.4c0,1.5,0.6,3,1.7,4.1c1,1,2.4,1.6,3.8,1.7
				c12.9,0.7,24.9,6,34.3,15.1c8.1,7.8,13.5,18.1,15.4,29.1c2.7,16.1-1.8,32.1-12.3,44.2c-0.1,0.1-0.1,0.1-0.2,0.2
				c-0.3,0.3-25.6,31.7-62.6,34.1c-3,0.2-5.8-1.6-6.8-4.5c-0.5-1.4-0.9-2.7-1.4-4.1c-0.7-2-1.4-4-2.1-6c-0.2-0.5-0.3-1-0.5-1.5
				c-0.1-0.4-0.4-0.8-0.3-1.3c0-0.5,0.2-1.1,0.6-1.5c0.4-0.5,1.4-0.7,2-0.7c0.4,0,0.8-0.1,1.3-0.1c0.8-0.1,1.7-0.2,2.5-0.3
				c1.7-0.3,3.3-0.7,4.9-1.2c3.2-1,6.3-2.4,9.1-4.3c2.9-1.9,5.5-4.1,7.7-6.7l9.8-11.2c6-7,9.5-15.9,9-25.1
				c-0.7-12.8-7.9-23.7-18.9-29.5c-0.2-0.1-0.4-0.2-0.6-0.3l-3.4-1.3c-15.2-5.6-29.2-13.9-41.3-24.4c-12.1-10.5-22.3-23.1-30.1-37.4
				l-2-3.7c-0.1-0.2-0.2-0.4-0.3-0.5c-5.1-7.2-12.6-12.1-21-13.9c-3.8-0.9-7.2-2.9-9.6-6c-5.7-7.4-11.6-14.5-17.7-21.3
				c-1.1-1.2-2.1-2.4-3.2-3.5c-1.5-1.7-0.9-4.3,1.1-5.2c18.7-8.3,40.9-5.3,56.8,8.5c9,7.9,15,18.2,17.3,29.8
				c0.5,2.8,2.9,4.8,5.7,4.8c0.3,0,0.5,0,0.8-0.1c10.9-1.6,21-7.2,28.5-15.8c16.2-18.6,15.4-45.7-1.6-60.5
				c-8.3-7.2-19.2-10.5-30.7-9.1c-11.3,1.4-21.7,7-29.5,15.9c-1.7,2-3.3,4.1-4.6,6.3c-0.7,1.1-1.4,2.3-2,3.5c-0.5,1-0.7,2.4-2.1,2.4
				c-0.5,0-1-0.2-1.3-0.5c-1.2-1.1,0.3-4.6,0.6-5.9c0.5-2,1.1-4,1.7-6c1.3-4,2.7-8,4.5-11.8c4.4-10,10.3-19.3,17.5-27.5
				c23.1-26.6,62.1-14.3,91,1.1c0,0,0,0,0.1,0c0.3,0.1,1.4,0.4,2.5-0.7c0.1-0.2,0.3-0.3,0.5-0.5c1.1-1.2,2.4-2.4,2.4-2.4
				c13.3-13.2,28.1-21.6,44.3-25c3.5-0.7,5.2-4.6,3.6-7.7c-9.1-16.8-38.9-59-105.5-47c-53.8,9.7-72,46.4-78.1,66.7
				c-0.8,2.8-2.6,5.3-4.8,7.3c-0.9,0.8-1.7,1.7-2.5,2.6c-7.9,9.4-9.3,15.3-10.5,20c-0.7,3-1.2,4.8-3.5,7.5c-1.3,1.5-3.7,3.1-6.3,4.9
				c-4,2.7-8.9,6.1-12.6,10.8c-2.6,3.3-7.7,3.2-10-0.3c-6.2-9.3-9-14.8-9.1-14.9c0-0.1-0.1-0.2-0.1-0.2
				c-21.7-39.1-34.7-56.7-60.5-81.6c-54.4-52.7-89.9-16.7-103.2-3.2c0,0-0.8,0.8-0.8,0.8c-10.2,10.3-18.6,23.4-27.2,35
				c-9.1,12.2-21.6,22.3-33.4,32c-38.7,31.7-51.8,82.3-33.6,129c5.7,14.5,10.9,26.8,15.2,36.7c1.3,3,0.9,6.5-1,9.1
				c-11.8,15.9-17.7,31.2-17.7,46.8c0,1.6,0,3.2-0.1,4.9c-0.7,11.9-1.8,54.9,18.9,76.7c20.5,21.6,31.8,25.9,53.3,30.6
				c2.5,0.6,4.2,2.9,4,5.5c-4.2,39.3-9.4,90.9-9.2,99.1c0,0.8,0,1.5,0,2.3c0.2,13.3,0.5,35.4,46.8,39.4
				c41.4,3.6,157.4,5.3,169.4,5.5c2.7,0.1,5.5,0.1,8.3,0.1c10,0,20.7-0.4,32.2-1.2c38.3-2.6,71.4-8.7,71.7-8.8
				c2.7-0.5,65.6-12.7,66.6-54.4c0.5-22.2-8.8-34.8-18.6-41.1c-2.9-1.9-3.9-5.5-2.4-8.6c6.1-11.9,12-31.7,4.9-57.6
				c-1.7-6.3-3.4-11.9-4.9-16.9c-0.9-3.1-1.8-6-2.5-8.7c-1-3.4,0.7-6.9,4-8.4c23.3-10.8,37.9-28.3,39.4-30.2
				c0.5-0.6,1.1-1.2,1.6-1.9c2.2-2.7,5.6-4.1,9.1-3.9c0.6,0,1.2,0,1.8,0c18.4,0,25.2-13.8,29.6-22.5c1-2.1,3.2-3.4,5.6-3.2
				c13.3,0.8,37.6-1.4,56.5-23.4c27-31.5,43.8-65.5,36.9-126.1c-0.1-1.3,0.8-2.4,2-2.5c4.3-0.4,14.3-0.3,25.6,6.3
				C692,243.7,694.2,241.2,692.8,239.2z M391.4,216.5c1-1.6,2.1-3.1,3.3-4.5c5.9-6.8,13.7-11,22.1-12c8.2-1,15.9,1.3,21.7,6.3
				c14.2,12.3,12.2,37.1-6.3,50.4c-1.2,0.9-2.6,1.6-3.9,2.3c-1.4,0.8-3.9,2.4-5.4,1.6c-1.3-0.7-1.9-2.6-1.7-3.9
				c0.2-1.3,1.6-2,2.6-2.4c1.3-0.5,2.6-1.2,3.8-1.9c2.6-1.5,4.9-3.5,6.8-5.7c9.4-10.8,9.1-26.5-0.7-35c-1.3-1.2-2.9-2.3-4.5-3
				c-2-0.9-1.1,0.6-0.6,1.7c0.3,0.6,0.5,1.3,0.6,1.9c0.3,1.3,0.4,2.7,0.2,4c-0.3,2.8-1.8,5.4-3.9,7.2c-3.7,3.2-9.2,3.5-13.3,0.9
				c-3.6-2.3-5.6-6.5-5.1-10.7c0.1-1.1,0.5-2,0.8-3.1c0.2-0.9,0-1.4-0.9-1.1c-1.4,0.4-2.6,1.6-3.7,2.5c-1.6,1.2-3,2.5-4.3,4
				c-1.8,2-3.2,4.3-4.3,6.7c-1,2-2.3,0.7-3.7-0.1c-0.6-0.3-1.4-0.6-1.6-1.4C388.9,219.4,390.6,217.7,391.4,216.5z M452.3,457.7
				c3.3-0.3,6.5-0.8,9.6-1.4c1.9-0.4,3.8,0.8,4.3,2.7c0.9,3.3,2,7,3.2,11c1.5,4.9,3.1,10.5,4.8,16.6c3.7,13.6,3.7,26.6,0.1,38.7
				c-0.5,1.5-2.6,1.6-3.1,0.1c-3.7-10.6-8.5-24.8-13.9-41.1c-2.4-7.2-4.9-14.8-7.6-22.6C449,459.9,450.3,457.9,452.3,457.7z
				 M466,365.6c0.9-1.1,2.7-1.1,3.5,0.1c2,2.8,3.4,6,4.1,9.4c0.6,3.2,0.5,6.5-0.2,9.6c-0.3,1.5-2.1,2-3.2,0.9
				c-3-3.3-6.7-6.1-10.7-8.3c-1.3-0.7-1.6-2.4-0.6-3.5L466,365.6z M444.2,351.5c3.3,1.7,6.7,3.2,10.2,4.6c1.6,0.7,2.1,2.8,1,4.1
				l-7.5,8.6c-1.3,1.5-3.5,2-5.4,1.2c-3.2-1.4-6.3-3-9.4-4.6c-1.5-0.8-1.8-2.7-0.7-4l8-9.2C441.3,351.1,442.9,350.8,444.2,351.5z
				 M416.8,336.5c1.5-1.7,2.7,0,4,1c2.2,1.7,3.3,2.3,4.9,3.3c1.3,0.8,3,1.5,4.1,2.6c2,2.1-1,4.3-2.3,5.8c-1.1,1.3-2.3,2.6-3.4,3.9
				c-0.9,1.1-2.1,2.7-3.4,3.2c-2.4,0.9-3.8-0.6-5.8-1.9c-1.2-0.8-2.4-1.6-3.5-2.6c-1-0.9-2.9-1.8-3.5-3.2c-0.6-1.3,0.3-2.4,1.1-3.3
				c1.2-1.4,2.4-2.8,3.6-4.1C414.1,339.6,415.5,338,416.8,336.5z M395,319.1c0-0.2,0.1-0.3,0.2-0.5c0.2-0.4,0.6-0.7,0.9-1.1
				c0.4-0.4,0.7-0.8,1.1-1.2c0.1-0.2,0.3-0.4,0.4-0.5c0.8-0.5,1.6,0.8,2,1.3c0.7,0.7,1.3,1.5,2,2.2c1.3,1.5,2.7,2.9,4.1,4.3
				c0.6,0.6,1.3,1.3,1.9,1.9c0.6,0.6,1.3,1,1.4,1.9c0,0.1,0,0.2,0,0.3c-0.1,0.5-0.7,1-1,1.4c-0.4,0.5-0.8,1-1.2,1.4
				c-0.8,1-1.7,2-2.5,2.9c-0.4,0.5-1.1,1.5-1.9,0.8c-0.3-0.3-0.5-0.9-0.7-1.3c-0.5-1-1-2-1.5-3.1c-0.9-1.8-1.8-3.7-2.7-5.5
				c-0.4-0.9-0.9-1.8-1.4-2.7c-0.2-0.4-0.5-0.9-0.7-1.3C395.2,320,395,319.6,395,319.1z M379.2,287.2c0,0,0.1,0.1,0.1,0.1
				c0.5,0.7,0.9,1.6,1.3,2.4c0.2,0.3,0.3,0.6,0.5,0.8c2.8,5.1,5.9,10,9.2,14.7c0.3,0.4,0.3,1-0.1,1.3l-0.8,1
				c-0.2,0.2-0.3,0.4-0.6,0.2c-0.2-0.2-0.3-0.4-0.4-0.7c-0.2-0.4-0.4-0.8-0.6-1.2c-0.4-0.8-0.9-1.5-1.3-2.3
				c-0.9-1.5-1.7-3.1-2.6-4.6c-1.7-2.9-3.4-5.8-5.2-8.7c-0.9-1.4-1.8-2.8-2.7-4.3c-0.4-0.7-0.9-1.4-1.3-2.1c-0.4-0.7-1-1.4-1.4-2.1
				c-0.2-0.3,0-0.4,0.3-0.3c0.3,0.2,0.6,0.4,0.9,0.7c0.6,0.5,1.2,0.9,1.8,1.5C377.4,284.9,378.3,286,379.2,287.2z M326.9,215.6
				c1.3-6.1,6.2-9.9,13.1-14.6c3.2-2.2,6.3-4.3,8.5-6.9c4.1-4.8,5.1-8.8,6-12.3c1-3.9,1.9-7.9,8.1-15.3c4.6-5.5,12.1-5.7,18.5-4.4
				c2.6,0.5,3.8,3.4,2.3,5.6c-8.6,12.4-14.8,26.2-18.3,40.9c-0.8,3.4-3.8,6-7.3,6.1c-8.4,0.3-16.8,2.3-24.6,5.9
				C328.7,222.7,325.8,220.4,326.9,215.6z M165.2,99.2c4.2-5.1,9.6-8.3,11.1-9.1l0,0c14.4-3.5,33.2,0.4,56.8,23.3
				c25.1,24.3,37.1,40.5,58.3,78.8c1,2,12.6,24.2,40.7,55.2c31.6,34.7,56.2,77.6,77.6,135c12.9,34.8,26.1,74,36.6,105.6
				c5.6,16.6,10.4,31.1,14.2,41.9c0.5,1.4-0.9,2.7-2.3,2.1c-2-0.9-4.1-1.5-6.2-1.7c-2.8-0.2-5.4,0.3-7.5,1.1
				c-2.4,0.9-5.1,0.6-7.3-0.9c-2.9-2.1-6.4-3.5-10.7-4.1c-6.4-0.9-12,0.4-16.4,3.8c-1.6,1.2-2.9,2.6-4,4.1c-1.3,1.8-3.7,2.5-5.9,2
				c-1.8-0.4-3.6-0.7-5.4-0.7c-0.1,0-0.1,0-0.2,0c-8.6,0.1-13.4,3.7-16,6.7l0,0c-1,1.2-2.8,1.5-4.2,0.7c-22-12.1-26.1-32-32-60.7
				c-2.1-10.1-4.4-21.5-7.9-33.7c-14.1-50-39.3-78.8-73.3-114c-34.8-36-48.9-88.7-54.2-117c-5-26.8-19.3-51-31.9-72.4
				c-5-8.5-9.7-16.5-13.1-23.6C158.1,113.7,159.2,106.3,165.2,99.2z M122.2,157.6c0.4-1.3,0.9-2.6,1.6-3.8c0.5-0.9,1.3-2.9,2.5-2.6
				c1.5,0.4,1.4,3.4,1.4,4.4c0.3,3.9,0.7,7.8,1.5,11.6c1.7,8,3.9,14.2,6,18.2c0.5,1,1.2,2.9,2.6,2.9c2.7-0.1,0.5-7.1,0.3-8.6
				c-0.8-4.5-1.5-9-1.9-13.5c-0.1-1.9-0.2-3.7-0.3-5.6c0-0.4-0.1-2.1,0.4-2.3c1.1-0.4,1.5,3.4,1.6,3.9c0.3,1,0.5,2,0.8,3l1,2.9
				c0.6,2,1.3,3.9,1.9,5.8c0.3,1,0.6,1.9,1,2.9l1,2.8c0.7,1.8,1.4,3.7,2.1,5.5c5.6,14.5,11.2,28.3,17.5,40.7
				c3.1,6.3,6.4,12.2,9.8,17.7c3.4,5.6,6.9,10.6,9.9,15.5c3,4.9,5.5,9.6,7.6,14.3c2.1,4.7,3.9,9.3,5.5,13.6
				c3.2,8.7,5.7,16.2,7.7,22.5c1.3,4.1,2.2,8.9,4.2,12.7c0.8,1.5,1.8-0.2,2-1.1c0.2-1.1-0.3-2.4-0.5-3.5c-0.6-3-1.2-6-1.9-9
				c-1.5-6.4-3.4-14.2-6.2-23.2c-1.4-4.5-2.9-9.3-4.9-14.3c-2-5-4.5-10.3-7.4-15.5c-3-5.2-6.3-10.3-9.3-15.8
				c-3.1-5.5-6.1-11.3-8.9-17.4c-5.8-12.3-11-25.9-16.3-40.4c-2.7-7.3-5.1-14.6-7.1-22.2c-0.8-3.8-2-7.6-2.3-11.6l-0.8-5.7
				c-0.1-0.5-0.1-1.2-0.1-1.7c0-0.7-0.2-1.6,0-2.4c0-0.2,0.1-0.3,0.2-0.5c0.2-0.2,0.5-0.3,0.7-0.2c0.5,0.2,0.7,0.8,0.9,1.2
				c0.3,0.6,0.6,1.1,0.9,1.7c3,5.2,6,10.2,8.7,15.2c5.5,9.9,10.2,19.5,12.9,28.8c1.4,4.7,2.2,9.3,2.8,13.8c0.3,2.3,0.4,4.5,0.7,6.8
				c0.2,1.2,0.3,2.5,0.5,3.7c0.2,1.2,0.5,2.3,0.8,3.4c0.5,2.3,1.3,4.3,1.9,6.4c0.7,2,1.5,4,2.3,5.8c1.6,3.7,3.3,7.1,4.9,10.2
				c3.3,6.2,6.5,11.3,9.3,15.3c0.8,1.2,1.6,2.6,2.6,3.7c1.8,1.8,2.9,0.1,2.4-2.1c-0.6-2.9-3.1-6.1-4.4-8.8c-1.7-3.5-3.4-7-5-10.5
				c-1.4-3.1-2.7-6.5-4-10c-0.6-1.8-1.2-3.6-1.8-5.5c-0.5-1.9-1.1-3.9-1.4-5.9c-0.2-1-0.4-2-0.5-3c-0.1-1-0.2-2-0.3-3
				c-0.1-2.2-0.2-4.7-0.4-7.1c-0.4-4.9-1.1-10-2.5-15.2c-2.6-10.4-9.2-20-12.8-31c-0.3-1.1-0.8-2-0.8-3.1c0-0.9,0.9-0.4,1.2-0.1
				c0.6,0.7,1,1.7,1.5,2.5c12.1,20.6,25.8,43.9,30.5,68.7c6.4,34,16.6,60.4,27.1,80.4c1.9,4.5,3.7,8.9,5.4,13.3
				c3.8,9.8,7.4,19.4,9.8,28.4c0.3,1.1,0.5,2.2,0.7,3.3c0.2,1.1,0.4,2.4,0.6,3.5c0.4,2.4,0.9,4.7,1.3,7c1,4.6,2,9.1,3.2,13.4
				c2.3,8.6,5.1,16.4,8.2,23.3c3.1,6.9,6.4,12.9,9.6,18c1.7,2.5,3.2,4.8,4.8,6.8c1.6,2,3,3.9,4.4,5.4c1.4,1.6,2.7,2.9,3.8,4.1
				c1.1,1,3.9,2.5,3.3,0c-0.5-2.2-2.8-4.7-4-6.5c-1.2-1.7-2.3-3.7-3.6-5.8c-1.3-2.1-2.5-4.5-3.9-7c-2.6-5.1-5.4-11.1-7.9-17.8
				c-2.5-6.8-4.8-14.4-6.7-22.7c-1-4.1-1.8-8.5-2.6-13c-0.4-2.3-0.8-4.5-1.1-6.9c-0.2-1.2-0.3-2.3-0.6-3.6c-0.2-1.3-0.4-2.6-0.7-3.9
				c-0.4-1.8-0.9-3.6-1.4-5.4c2.7,3.2,5.2,6,7.4,8.3c33.9,35,57.1,61.6,70.5,109.1c0.9,3.1,1.7,6.3,2.5,9.5c0.4,1.5,0.7,3.1,1.1,4.6
				c0.3,1.5,0.4,2.6,0.4,4c0,0.3-0.1,0.7-0.3,0.7c-0.9,0.3-3.7-6.3-4.2-7.3c-1.3-2.5-2.6-5.1-4-7.6c-2.6-4.8-5-9.5-7.6-14.1
				c-1.2-2.3-2.5-4.5-3.8-6.8c-0.7-1.1-1.4-2.2-2-3.3c-0.7-1.1-1.4-2.1-2.1-3.1c-5.6-8.2-11.2-15.3-16.2-21.8
				c-10-13-17-24.1-20.8-32.3c-0.9-2-1.8-4-2.7-6c-0.2-0.5-2.1-4-2.6-2.6c-0.4,1.4-0.3,2.6,0,4c0.2,0.9,0.4,1.8,0.7,2.9
				c0.3,1,0.6,2.1,1,3.2c2.8,9,9.3,21.2,18.7,34.9c4.6,6.9,10,14.2,15,22.2c0.6,1,1.2,2,1.9,3c0.6,1,1.2,2.1,1.8,3.1
				c1.2,2.1,2.3,4.4,3.5,6.7c3.8,7.5,7.8,15.4,11.9,23.7c0.6,1.2,1.1,2.4,1.7,3.6c0.6,1.3,1.1,2.1,1.2,3.3c0,0.4,0.4,1.8,0,2.1
				c-0.6,0.3-1.8-1.2-2.1-1.6c-1-1.1-2-2.2-3-3.3c-1.9-2-3.7-4-5.6-5.9c-3.4-3.3-6.6-6.5-9.7-9.5c-3.1-3-6-5.6-8.8-8.2
				c-5.5-5.1-10.3-9.4-14.3-12.9c-1.7-1.5-3.4-3-5.1-4.4c-1-0.9-2.5-2.7-4-2.7c-2.6,0,0.3,3,1.1,4c1.7,2,3.5,3.9,5.2,5.9
				c3.5,3.9,7.9,8.6,13.1,14.1c2.6,2.7,5.3,5.6,8.2,8.7c2.8,3.1,5.9,6.4,9,9.8c12.4,13.9,26.3,31.3,38.1,52.7
				c5.8,10.7,11.2,22.3,15.2,34.9c0.4,1.3,0.7,2.6,1.1,3.9c0.3,1.1,0.5,2.4,0.1,3.6c0,0,0,0.1-0.1,0.1c0,0-0.1,0-0.1,0
				c-0.7-0.2-1-1-1.3-1.5c-0.4-0.8-0.9-1.6-1.4-2.3c-0.9-1.5-1.8-3.1-2.7-4.6c-1.8-3-3.6-6-5.4-9c-0.9-1.5-1.8-3-2.7-4.4
				c-9.5-15.4-18.4-29.1-26.1-40.4c-5.5-8.1-11.1-16.2-16.9-24c-1.8-2.5-3.6-5-5.7-7.3c-0.8-0.9-2.9-3.2-3.3-1
				c-0.3,1.8,1.9,4.3,2.7,5.9c1.4,2.7,2.9,5.4,4.4,8c4.2,7.5,8.5,14.9,12.8,22.2c6.9,11.8,15.1,25.8,24.2,41.3
				c1.5,2.6,3,5.2,4.5,7.8c0.8,1.4,1.6,2.7,2.3,4.1c0.4,0.7,0.8,1.4,1.2,2.1c0.3,0.6,0.4,1.3,0.5,2c0,0.2,0.1,0.5-0.1,0.7
				c-0.1,0.1-0.2,0.1-0.4,0.1c-1.5,0.2-2.7-1.1-3.8-2c-1.3-1.2-2.6-2.4-3.9-3.6c-2.5-2.4-5-4.8-7.4-7.3c-2.2-2.3-4.4-4.6-6.5-7
				c-11.6-13-20.3-26.1-26.2-37.8c-6.1-11.7-9.6-21.8-11.9-28.9c-0.6-1.8-1.1-3.4-1.5-4.7c-0.5-1.8-1-3.6-1.5-5.3
				c-0.2-0.7-0.2-1.7-0.7-2.3c-0.6-0.7-0.9-0.1-0.9,0.6c0,2.5-0.1,5.1,0.1,7.6c0.1,1.5,0.4,3.1,0.7,5c0.1,0.4,0.5,1.8,0.1,2.1
				c-0.6,0.4-0.8-0.5-1-0.9c-3.7-9.1-7.9-18-12.1-26.9c-5-10.3-10.4-20.4-16.4-30.1c-0.7-1.3-1.8-3.4-2.6-4.7
				c-2.4-5.1-4.7-10.1-6.7-15.2c-4.1-10.1-7.4-20.1-9.7-29.8c-0.5-2.4-1-4.8-1.5-7.2c-0.4-2.4-0.7-4.7-1.1-7
				c-0.3-2.3-0.4-4.6-0.6-6.9c-0.2-2.4-0.4-4.7-0.6-7.1c-0.9-9.3-2.5-17.8-4.4-25.5c-1.9-7.7-4.1-14.4-6.2-20.3
				c-2.1-5.9-4.2-10.8-6.1-14.7c-1-2.1-2-4.2-3.2-6.2c-0.5-0.9-2.1-3.7-3-1.4c-0.3,0.6,0.3,1.7,0.5,2.3c0.7,2.3,1.4,4.5,2.1,6.8
				c1.3,4.1,2.8,9.1,4.4,15c1.6,5.9,3.3,12.6,4.7,20.1c1.4,7.5,2.6,15.7,3.1,24.6c0.1,2.2,0.2,4.5,0.3,6.8c0.1,2.4,0.2,4.9,0.4,7.4
				c0.3,2.5,0.6,5,0.9,7.6c0.5,2.6,0.9,5.1,1.4,7.8c0.2,1.3,0.6,2.6,0.9,3.9c0.3,1.4,0.4,2.5,0.4,3.9c0,0.2,0,0.5-0.2,0.7
				c-0.2,0.2-0.5,0.3-0.8,0.2c-1-0.3-1.3-1.2-1.8-2c-0.6-1.1-1.3-2.2-1.9-3.3c-4.6-8.1-8.3-16.4-11.2-24.5
				c-5.8-16.2-7.9-31.8-10.1-45.1c-2.2-13.6-6.3-24.1-9.7-30.9c-1-1.9-2-4.6-3.5-6.1c-1.7-1.6-2.4-0.2-2,1.6c0.5,2,1.3,4,1.9,6
				c2.2,7.1,5.1,17.3,6.4,30.4c0.1,1.2,0.2,2.4,0.4,3.6c0.1,0.8,0.4,1.8,0.1,2.5c-0.5,1.6-1,0-1.2-0.8c-0.3-1.1-0.5-2.2-0.7-3.3
				c-2.1-8.9-4.3-17.8-7.2-26.6c-3.4-10.4-7.5-20.5-12.4-30.3c-9.2-18.4-18.7-33.7-27.1-47.2c-5.3-8.6-10.8-17.2-15.3-26.2
				c-3-5.9-5.9-12.3-6.4-18.9C121.1,162.9,121.4,160.2,122.2,157.6z M50.9,392.5L50.9,392.5c-0.3-12,3.7-23.8,12-36.2
				c1.2-1.9,4.1-1.7,5,0.3c0.3,0.7,0.6,1.3,1,2c0.3,0.5,0.5,1.1,0.5,1.7c0.5,3.7-1.7,7-2.4,10.6c-0.8,4.4-0.1,7.4,1.5,7.8
				c1.6,0.4,3.5-1.5,6-4.4c2.5-2.9,5.5-6.9,9.1-11.1c3.5-4.2,7.7-7.8,12.5-10.9c6.8-4.4,12.4-6,15.9-4.6c0.8,0.3,1.5,0.8,2,1.4
				c-4.9,1.9-9.8,4.7-14.2,8.7c-3,2.8-6,5.7-8.7,8.9c-3.8,4.3-6.3,8.9-7.5,12.6c-1.2,3.7-1,6.4,0.5,7.2c2.8,1.4,9-4.5,15.7-12.1
				c2.4-2.8,5.1-5.5,7.8-7.9c5-4.6,10.7-7,15.8-8c0.1,0,0.1,0,0.2,0c0,0,0.1,0,0.1,0c5.5-1,10.4-0.1,12.8,2c2.4,2.1,3.3,5,3.7,7.4
				c0,0,0,0,0,0c-5.6,1-10.3,2.7-11.8,3.4c-2.2,0.7-11.8,3.9-21.4,13c-3.6,3.3-5.9,7.2-6.8,10.3c-1,3.1-0.6,5.5,0.7,6.3
				c1.4,0.8,3.5,0.1,5.9-1.5c2.4-1.6,5.2-4,8.1-6.7c8.5-8,16.9-10.4,16.9-10.4c0.3-0.1,0.5-0.2,0.8-0.3c5.4-2.3,17.9-5.5,22.1-1
				c2.7,2.9,2.5,5.5,1.7,7.4c0,0,0,0,0,0c-7,0.8-15.9,4.2-27,11.8c-11.1,7.7-16.8,17.2-14.6,19.5c2.3,2.3,11.2-3,21.1-9.9
				c19.9-13.7,28-10.2,31-6.8c2.3,2.5,2.1,3.9,2,4.4c-0.7,5.5-12.5,13.1-21.9,19.2c-9.8,6.3-19.9,12.9-25.2,20.5
				c-3.3,4.8-10.4,12.8-20.9,12.8c-10.7,0-22.3-8.6-33.4-24.7c-10.1-14.7-15.6-27.8-16.4-40.4c0-0.2,0-0.4,0-0.4
				C51.1,393.6,51,393,50.9,392.5z M114.8,492.3c-20.7-4.5-29.8-8-48.2-27.5c-3.6-3.8-6.3-8.4-8.4-13.2c-1.1-2.5-2-5-2.8-7.6
				c-0.3-1.1-2.6-6.8-1.7-7.6c0.9-0.7,3.5,4.3,4.1,5.1c13.6,19.7,28,29.7,42.9,29.7c6.8,0,13.5-2.3,19.4-6.5c0,0,0,0,0.1,0
				c-0.4,3.6-1.4,13.1-2.8,25.6C117.4,491.7,116.1,492.6,114.8,492.3z M253.9,641.8c-0.1,0.2-0.4,0.3-0.6,0.3
				c-1.3,0.3-2.5,0.2-3.8,0.2c-1.3,0-2.5-0.1-3.8-0.1c-2.6-0.1-5.1-0.1-7.7-0.2c-2.6-0.1-5.1-0.1-7.7-0.2c-2.6-0.1-5.1-0.2-7.7-0.2
				c-2.5-0.1-5.1-0.2-7.6-0.2c-2.5-0.1-5-0.2-7.5-0.3c-2.5-0.1-4.9-0.2-7.4-0.3c-2.4-0.1-4.8-0.2-7.2-0.3c-2.3-0.1-4.6-0.2-6.9-0.3
				c-2.2-0.1-4.4-0.2-6.6-0.3c-2.1-0.1-4.2-0.2-6.3-0.3c-2-0.1-3.9-0.2-5.9-0.3c-1.8-0.1-3.6-0.2-5.4-0.3c-1.6-0.1-3.3-0.2-4.9-0.4
				c-0.9-0.1-1.7-0.1-2.6-0.2c-35.9-3.1-36.1-15.8-36.3-28.1c0-0.8,0-1.7,0-2.5c-0.2-8.7,6.9-77,11.6-120.5c0.2-1.5,2.1-1.9,2.8-0.6
				c0.4,0.7,0.8,1.4,1.2,2.2c1.2,2.1,2.4,4.2,3.7,6.3c1.2,2.1,2.5,4.2,3.7,6.3c1.3,2.1,2.5,4.2,3.8,6.3c1.3,2.1,2.6,4.2,3.8,6.4
				c1.3,2.1,2.6,4.2,3.9,6.4c1.3,2.1,2.6,4.2,4,6.3c1.3,2.1,2.7,4.2,4,6.3c1.3,2.1,2.7,4.2,4.1,6.3c1.4,2.1,2.7,4.1,4.1,6.2
				c1.4,2.1,2.8,4.1,4.1,6.2c1.4,2,2.8,4.1,4.2,6.1c1.4,2,2.8,4,4.2,6c1.4,2,2.8,3.9,4.2,5.9c1.4,1.9,2.8,3.9,4.3,5.8
				c1.4,1.9,2.8,3.8,4.3,5.7c1.4,1.9,2.9,3.7,4.3,5.5c1.4,1.8,2.9,3.6,4.3,5.4c1.4,1.8,2.9,3.5,4.3,5.2c1.4,1.7,2.9,3.4,4.3,5.1
				c1.4,1.6,2.9,3.3,4.4,4.9c1.4,1.6,2.9,3.1,4.4,4.7c1.4,1.5,2.9,3,4.4,4.5c1.4,1.4,2.9,2.9,4.3,4.3c1.4,1.4,2.9,2.7,4.3,4
				c1.4,1.3,2.9,2.6,4.3,3.8c1.4,1.2,2.9,2.4,4.3,3.5c1.4,1.1,2.8,2.2,4.3,3.3c1.4,1,2.8,2,4.3,3c0.6,0.4,1.2,0.8,1.8,1.2
				c0.6,0.4,1.5,0.8,1.9,1.5C254,641.2,254.1,641.5,253.9,641.8z M381,636.8c-3.8,6.5-12.2,5.5-18.8,5.9c-14,0.9-26.8,1.3-38.4,1
				c0,0-0.1,0-0.2,0c-26.2-0.6-46.3-4.1-59.3-10.5c5.9,0.4,12.6,0.2,19.6-1c1.5-0.3,2.9-0.5,4.3-0.8c1.4-0.4,2.8-0.7,4.2-1
				c2.7-0.6,5.3-1.6,7.7-2.5c0.6-0.2,1.2-0.4,1.8-0.7c0.6-0.2,1.1-0.5,1.7-0.8c1.1-0.5,2.2-1,3.2-1.5c2.1-0.9,3.9-2.1,5.5-3.1
				c1.6-1.1,3.1-1.9,4.3-3c1.2-1,2.2-1.9,2.9-2.7c1.5-1.6,2.2-2.6,1.9-3.1c-0.3-0.5-1.6-0.3-3.6,0.4c-1,0.3-2.2,0.8-3.5,1.4
				c-1.3,0.6-2.9,1.1-4.6,1.8c-6.8,2.7-16.3,5.7-27.1,7.4c-10.9,1.8-20.9,1.9-28.3,2c-0.5,0-0.9,0-1.3,0c-0.9-0.6-1.8-1.3-2.7-2
				c-7.8-6-15-12.9-21.9-20c-8.4-8.8-16.2-18.1-23.6-27.7c-8.8-11.4-17.2-23.1-25.2-35.1c-9.3-13.8-18.1-27.9-26.6-42.2
				c-4.7-7.9-9.3-15.8-13.8-23.7c-2.3-4.1-4.7-8.2-7-12.4c-1.3-2.5-2.1-7.1-1-9.8c0.9-2.2,3.8-4.2,5.5-5.7
				c5.1-4.3,10.7-7.8,16.3-11.4c13.2-8.5,25.7-16.6,27.1-27.4c0.6-4.8-1-9.4-4.9-13.7c-1.5-1.7-3.4-3.2-5.6-4.4
				c-1.1-0.6-1.7-1.8-1.6-3.1c0.5-4.4-0.6-9.5-5.2-14.5c-2.5-2.7-5.5-4.3-8.8-5.1c-1.5-0.4-2.6-1.6-2.9-3.1
				c-0.8-4.3-2.8-9.3-7.3-13.3c-4-3.4-9.9-5.3-16.5-5.2c-0.7,0-1.4-0.3-1.8-1c-1.7-3-4.5-6.5-9.2-8.4c-7.3-3.1-16.3-1.2-26.7,5.5
				c-3.3,2.1-6.3,4.4-9.1,7c-1.2,1.1-2.9,0.9-3.4-0.8c-0.1-0.5,0-1.1,0.3-1.6c0.9-1.7,2.9-3,4.4-4.2c5.2-4.5,12.2-10.7,20.4-17.2
				c16.3-13,30.3-23,29.1-25.1c-1-1.9-17.3,5.1-34.3,18.6c-2.7,2.2-5.7,4.1-8.3,6.4c-2.8,2.5-5.8,4.7-8.9,6.8
				c-2.1,1.4-5.8,3.8-8.4,2.5c-2.3-1.2-2.9-4.1-3.8-6.2c-5-11.3-9.7-22.8-14.2-34.3c-16.4-42-4.6-87.4,30.2-115.9
				c3.9-3.2,7.7-6.4,11.5-9.6c3.3-2.9,6.4-6.2,10.1-8.6c0.7-0.5,1.7-0.8,2.5-0.6c2.4,0.7,1.8,3.3,1.8,5.1c0.1,2,0.3,4.1,0.7,6.1
				c0.8,4.4,2.3,8.6,4.1,12.7c4.3,10.1,10.2,19.5,16,28.8c0.9,1.5,1.9,3,2.8,4.5c8.3,13.3,17.6,28.4,26.6,46.3
				c11.8,23.7,16.3,43.9,20.3,61.8c5.8,26,10.8,48.4,34.4,72.7c27.6,28.3,43.9,66.2,54.7,91.3c4.3,10.1,7.8,18.1,11.1,23.7
				c2.3,3.9,4.7,7.8,7.3,11.6c0.8,1.2,1.7,2.4,2.5,3.5c0.7,1,1.9,2.3,2.2,3.5c0.5,2.2,0.1,5.5-1,7.4c-1.6,2.9-4.9,4.1-7.8,5.2
				c-4.4,1.7-8.7,3.5-13.1,5.3c-9.1,3.7-17.3,6.8-23.3,8.7c-6,2-9.8,2.7-9.9,3.9c0,0.6,0.9,1.1,2.9,1.6c0.5,0.1,1,0.2,1.6,0.3
				c0.6,0,1.2,0.1,1.9,0.1c1.4,0,3,0.1,4.7-0.1c6.8-0.6,15.9-3,25.3-6.8c5.1-2.1,10-4.4,14.8-7c2-1.1,3.9-2.4,5.9-3.4
				c2.1-1,5.5-0.5,7.7,0.2c2.8,0.9,5.1,2.9,7,5c2.4,2.7,4.8,5.3,7.3,7.8c4.3,4.5,8.8,8.8,13.4,12.9c3.7,3.3,7.4,6.6,11.2,9.8
				c1.2,1.1,2.4,2,3.4,2.9c11.3,9.9,21.9,21,31.1,32.8c2.1,2.7,4.1,5.4,6,8.3C383.2,629.5,382.8,633.7,381,636.8z M479.8,581.8
				c0.1-0.4,0.2-0.9,0.3-1.3c0.5-2.9,0.7-5.9,0.5-8.8c-0.1-1.7-0.3-3.4-0.6-5.1c-0.2-0.9-0.3-1.8-0.5-2.7c-0.1-0.5-0.2-0.9-0.3-1.3
				c-0.1-0.2-0.3-0.7,0-0.8c0.1,0,0.2,0,0.3,0.1c1.8,1.5,3.4,3.3,4.7,5.2c1.4,2.1,2.5,4.3,3.4,6.6c0.9,2.6,1.5,5.2,1.9,7.9
				c0.4,3,0.6,6.1,0.5,9.2c-0.8,32.4-56.6,43.2-57.2,43.3c-0.1,0-0.3,0.1-0.4,0.1c-4,0.7-8,1.4-12,2c-3.7,0.6-7.4,1.1-11.1,1.6
				c-2.2,0.3-4.4,0.6-6.6,0.9c-1.2,0.2-4.8,1.3-5.8,0.3c-0.8-0.8-0.3-2.3-0.2-3.3c0.1-1.2,0-2.4-0.1-3.5c-0.4-3-1.6-5.8-3.1-8.4
				c-15.5-26.4-22.6-49.3-19.4-54.2c2.1-3.3,3.9-3.3,4.5-3.3c0,0,0.1,0,0.1,0c2.1,0,9.7,1.7,24.1,21.5c6.8,9.5,13.6,16.9,16.4,15.4
				c2.8-1.5,0.4-11.7-7.1-22.2c-8.8-12.1-16.7-20-23.9-23.7c-1.8-0.9-2.7-3.1-2-5c0.3-0.9,0.8-1.8,1.4-2.5c1.5-1.7,3.9-2.6,7.3-2.6
				c7.4-0.1,18,9.5,26.7,23.8c3.3,5.5,6.3,10.4,8.6,13.9c2.4,3.5,4.2,5.7,5.8,5.5c1.6-0.2,2.6-3.5,1.9-8.3c-0.6-4.8-2.8-11-6.4-17.1
				c-2.9-4.7-8.3-12.8-15.3-19.3c-1.4-1.3-1.6-3.6-0.3-5.1c1.8-2,4.6-3.4,9.2-2.8c8.3,1.2,11.9,8.7,16.7,21c0.6,1.5,1.2,3,1.8,4.5
				c2.4,5.9,4.4,11.2,5.7,15.1c1.4,3.9,2.2,6.5,3.7,6.9c0.8,0.2,1.7-0.4,2.5-1.7c0.8-1.3,1.6-3.4,1.9-5.9c0.7-5.1-0.4-12-3.2-18.8
				c-0.6-1.4-1.2-2.9-1.7-4.4c-1.5-3.9-3.1-7.9-5.1-11.7c0,0,0,0,0,0c1.1-0.7,2.4-1.2,3.9-1.1c3.5,0.3,7.5,4.3,11.4,11.2
				c2.4,4.4,4.2,8.5,5.3,12.2c3.6,12.4,4.1,23.5,7.2,24.1C476.6,589.7,478.7,586.8,479.8,581.8z M530.4,337.5
				c-1,0.8-2.8,2.8-4.2,2.5c-1.3-0.3-2.8-2.7-2.7-4.1c0,0,0,0,0-0.1c0.2-1.3,1.7-1.8,2.6-2.6c1.4-1.1,2.7-2.3,3.9-3.7
				c9.4-10.8,9.1-26.5-0.7-35c-1.3-1.1-4.1-3.7-5.9-3.2c-0.1,0.7,0.5,1.3,0.8,1.9c0.3,0.6,0.5,1.3,0.6,1.9c0.3,1.3,0.4,2.7,0.2,4
				c-0.3,2.8-1.8,5.4-3.9,7.2c-3.7,3.2-9.2,3.5-13.3,0.9c-3.2-2.1-5.2-5.7-5.1-9.5c0-0.9,0.1-1.8,0.4-2.7c0.1-0.5,1-2,0.7-2.5
				c-0.7-1.3-4.2,1.8-4.9,2.3c-1.6,1.2-3.1,2.6-4.4,4.1c-2.8,3.2-4.8,6.9-5.9,11c-0.4,1.5-0.2,3.4-2,3.7c-1.2,0.2-2.9-0.2-3.8-1
				c-1.2-1.1-0.5-2.9-0.1-4.2c0.5-1.6,1.1-3.2,1.8-4.7c1.5-3.1,3.4-6.1,5.6-8.7c12-13.8,31.6-16.3,43.9-5.7
				c12.2,10.6,12.4,30.5,0.5,44.2C533.2,334.9,531.9,336.3,530.4,337.5z M583.9,359c-6.4,7.1-10.3,8.7-14,10.1
				c-3.4,1.3-7.2,2.9-11.4,7.6c-2.3,2.6-3.9,5.9-5.6,9.4c-4.1,8.4-7.8,15.8-18.7,16c-1,0-1.7-1-1.4-2c3.4-8.7,4.8-18.2,4.1-27.8
				c-0.1-1.4-0.2-2.8-0.4-4.3c-0.3-2.1,0.9-4.1,2.9-4.9c15.6-5.8,29.7-14.6,41.6-26c1.2-1.2,3.3-0.8,3.9,0.8
				C587.6,344.7,589.3,353.1,583.9,359z"/>
			<path class="st0" d="M103.8,206.5c6.4-5.4,10.5-8.6,10-9.6c-0.5-1-5.8,0.5-13.4,4.8c-7.5,4.4-17.4,11.7-25.9,22.1
				c-8.7,10.4-13.7,22-15.6,30.6c-1.9,8.7-1.2,14.2-0.2,14.3c1.2,0.1,2.6-5,5.7-12.5c3.1-7.6,8.4-17.5,16.4-27.1
				C88.8,219.4,97.5,211.8,103.8,206.5z"/>
			<path class="st0" d="M109.6,261.6c-7.5,5.4-13.8,11-17.9,15.7c-2.1,2.3-3.5,4.5-4.3,6.1c-0.8,1.7-0.9,2.7-0.4,3.1
				c0.5,0.3,1.5-0.1,2.9-1c1.4-0.9,3.4-2.2,5.8-3.9c4.8-3.3,11.5-8,18.9-13.4c14.7-10.7,26.1-20.2,24.9-22.1
				C138.1,244.2,124.6,250.7,109.6,261.6z"/>
			<path class="st0" d="M179.7,438.1c6.8-3.9,12.6-7.9,16.5-11.3c4-3.4,5.9-6.3,5.2-7.1c-0.7-0.9-3.7,0.2-8.3,2.2
				c-4.6,2.1-10.8,5.2-17.5,9.1c-13.4,7.6-23.6,15.2-22.5,17.2C154.1,450.1,166.1,445.8,179.7,438.1z"/>
			<path class="st0" d="M304.8,575.9c-1.7,0.5-4.1,1.5-7,2.6c-5.8,2.3-13.7,5.5-22.6,8.4c-17.9,5.9-33.1,8.5-33,10.7
				c0,1.1,4.1,2,10.6,1.8c6.5-0.2,15.5-1.5,24.9-4.7c9.5-3,17.6-7.3,22.9-11.1c2.7-1.8,4.7-3.6,5.9-5c1.3-1.4,1.8-2.3,1.5-2.8
				C307.6,575.4,306.5,575.4,304.8,575.9z"/>
			<path class="st0" d="M250.2,500.1c1-0.9,1.8-1.7,2.4-2.5c1.2-1.4,1.7-2.4,1.4-2.9c-0.3-0.5-1.5-0.3-3.2,0.3
				c-0.9,0.3-1.9,0.7-3.1,1.2c-1.2,0.5-2.5,1-4,1.7c-5.8,2.6-13.8,6-22.8,9.6c-18,7.1-33,12.3-32.5,14.5c0.5,2.2,16.8,0.6,35.5-6.8
				c9.3-3.7,17.4-8.2,22.7-12.2C248,501.9,249.2,501,250.2,500.1z"/>
			<path class="st0" d="M153.3,322.6c-4.1,2.4-7.5,5-9.7,7.4c-2.2,2.4-3.1,4.5-2.3,5.3c0.7,0.9,2.8,0.5,5.6-0.5
				c2.9-1.1,6.6-2.8,10.5-5.1c7.9-4.6,13.8-9.5,12.8-11.6C169.2,316.1,161.5,317.9,153.3,322.6z"/>
			<path class="st0" d="M199,468.4c4.3-3.2,6.5-5.9,5.8-6.8c-0.6-0.9-3.8,0-8.6,1.7c-4.8,1.7-11.3,4.3-18.5,7.1
				c-14.4,5.5-26.4,9.9-25.9,12.2c0.4,2.1,13.7,1.4,28.9-4.5C188.2,475.1,194.7,471.5,199,468.4z"/>
			<path class="st0" d="M216.3,482.5c-1.2-2-10.3,1.4-21.1,5.9c-5.4,2.3-10.2,4.3-13.7,5.9c-3.5,1.6-5.7,2.7-5.6,3.9
				c0.1,1.1,2.7,2,7,1.8c4.2-0.2,9.8-1.6,15.5-4C209.9,491.2,217.5,484.4,216.3,482.5z"/>
		</g>
	</g>
</g>
<g id="Layer_2_00000157993863684012808430000012160709423626423189_">
</g>
</svg>
