<?xml version="1.0" encoding="UTF-8"?>
<svg id="Layer_2" data-name="Layer 2" xmlns="http://www.w3.org/2000/svg" viewBox="0 0 208.66 199.44">
  <defs>
    <style>
      .cls-1 {
        fill: #d7df28;
        stroke-width: 0px;
      }
    </style>
  </defs>
  <g id="Layer_1-2" data-name="Layer 1">
    <path class="cls-1" d="m2.65,64.87h44.72v134.57H2.65V64.87ZM25.3,0C10,0,0,10.05,0,23.24s9.71,23.26,24.72,23.26h.29c15.6,0,25.31-10.34,25.31-23.26C50.02,10.05,40.6,0,25.3,0Zm131.86,61.71c-23.74,0-34.37,13.06-40.3,22.21v-19.05h-44.73c.59,12.62,0,134.57,0,134.57h44.73v-75.15c0-4.03.29-8.04,1.47-10.92,3.24-8.04,10.6-16.36,22.94-16.36,16.2,0,22.67,12.35,22.67,30.43v72h44.72v-77.17c0-41.33-22.06-60.57-51.5-60.57Z"/>
  </g>
</svg>